HIERARCHY
ROOT Hips
{
	OFFSET 0.000000 0.000000 0.000000
	CHANNELS 6 Xposition Yposition Zposition Yrotation Xrotation Zrotation
	JOINT Chest
	{
		OFFSET 0.000000 -0.009281 11.569106
		CHANNELS 3 Yrotation Xrotation Zrotation
		JOINT Chest2
		{
			OFFSET -0.000000 0.016865 9.269641
			CHANNELS 3 Yrotation Xrotation Zrotation
			JOINT Chest3
			{
				OFFSET -0.000000 0.000001 8.374491
				CHANNELS 3 Yrotation Xrotation Zrotation
				JOINT Chest4
				{
					OFFSET -0.000000 0.000001 8.374493
					CHANNELS 3 Yrotation Xrotation Zrotation
					JOINT Neck
					{
						OFFSET -0.000000 0.000002 12.152554
						CHANNELS 3 Yrotation Xrotation Zrotation
						JOINT Head
						{
							OFFSET -0.000000 0.040101 7.802319
							CHANNELS 3 Yrotation Xrotation Zrotation
							End Site
							{
								OFFSET -0.000000 0.020947 14.853096
							}
						}
					}
					JOINT RightCollar
					{
						OFFSET 2.894404 0.000001 6.791374
						CHANNELS 3 Yrotation Xrotation Zrotation
						JOINT RightShoulder
						{
							OFFSET 13.574684 0.000001 0.000000
							CHANNELS 3 Yrotation Xrotation Zrotation
							JOINT RightElbow
							{
								OFFSET 23.923903 0.000002 0.000000
								CHANNELS 3 Yrotation Xrotation Zrotation
								JOINT RightWrist
								{
									OFFSET 19.846718 0.012767 0.000000
									CHANNELS 3 Yrotation Xrotation Zrotation
									End Site
									{
										OFFSET 14.973145 0.000001 0.000000
									}
								}
							}
						}
					}
					JOINT LeftCollar
					{
						OFFSET -2.894404 0.000001 6.791374
						CHANNELS 3 Yrotation Xrotation Zrotation
						JOINT LeftShoulder
						{
							OFFSET -13.574684 -0.000001 0.000000
							CHANNELS 3 Yrotation Xrotation Zrotation
							JOINT LeftElbow
							{
								OFFSET -23.923903 -0.000002 0.000000
								CHANNELS 3 Yrotation Xrotation Zrotation
								JOINT LeftWrist
								{
									OFFSET -19.846718 0.012763 0.000000
									CHANNELS 3 Yrotation Xrotation Zrotation
									End Site
									{
										OFFSET -14.973145 -0.000001 0.000000
									}
								}
							}
						}
					}
				}
			}
		}
	}
	JOINT RightHip
	{
		OFFSET 9.469263 0.004643 0.045487
		CHANNELS 3 Yrotation Xrotation Zrotation
		JOINT RightKnee
		{
			OFFSET 0.000000 0.002661 -40.478676
			CHANNELS 3 Yrotation Xrotation Zrotation
			JOINT RightAnkle
			{
				OFFSET 0.000000 0.049106 -35.224068
				CHANNELS 3 Yrotation Xrotation Zrotation
				JOINT RightToe
				{
					OFFSET -0.000001 12.539529 -6.151390
					CHANNELS 3 Yrotation Xrotation Zrotation
					End Site
					{
						OFFSET -0.000001 5.044994 -1.291870
					}
				}
			}
		}
	}
	JOINT LeftHip
	{
		OFFSET -9.469263 0.004641 0.045487
		CHANNELS 3 Yrotation Xrotation Zrotation
		JOINT LeftKnee
		{
			OFFSET 0.000000 0.002661 -40.478676
			CHANNELS 3 Yrotation Xrotation Zrotation
			JOINT LeftAnkle
			{
				OFFSET 0.000000 0.049106 -35.224068
				CHANNELS 3 Yrotation Xrotation Zrotation
				JOINT LeftToe
				{
					OFFSET -0.000001 12.539529 -6.151390
					CHANNELS 3 Yrotation Xrotation Zrotation
					End Site
					{
						OFFSET -0.000001 5.044994 -1.291870
					}
				}
			}
		}
	}
}
MOTION
Frames: 9
Frame Time: 0.016667
-22.360003 28.285728 85.585793 -1.417678 1.997492 -124.187483 -7.063205 -7.330576 7.785015 -3.055432 -3.415130 3.278555 -3.055432 -3.415133 3.278555 -2.272632 -2.577899 2.441165 1.465360 -22.456658 0.523078 2.788259 -5.543803 1.345282 5.923849 4.374366 -3.232987 59.787193 44.057189 39.884254 20.237179 -5.106640 75.456412 -59.417721 32.126198 20.416962 -5.909105 8.838558 -0.018768 -50.920389 33.838028 10.114314 -3.297097 -12.659533 -8.166822 20.997166 10.402066 -37.156776 3.260646 4.303832 -6.120466 4.710560 -8.540570 -4.790115 24.869882 -29.495960 12.916076 -2.890894 -0.507023 -0.870349 -13.758764 40.548453 -12.702471 0.527570 -9.444004 24.877596 5.151967 -14.805379 1.346389 1.818223 2.348797 -0.385449 
-22.377731 28.189226 85.548286 -1.432171 2.015884 -124.877059 -7.196094 -7.420102 8.096300 -3.101808 -3.472932 3.435001 -3.101807 -3.472933 3.435001 -2.306190 -2.622304 2.557892 1.399741 -22.356211 0.607619 2.694691 -5.358048 1.482163 5.893655 4.525116 -2.765152 60.166003 43.077221 41.458651 19.649944 -5.424047 75.995294 -59.541730 32.509662 20.883766 -5.821167 9.181723 0.232528 -50.157074 34.507014 10.901680 -3.148384 -12.002037 -8.305346 20.950296 10.441307 -36.990409 3.212738 4.245097 -6.482176 4.780496 -8.458192 -4.671431 25.291408 -30.068583 13.027893 -2.606748 -0.562263 -0.849411 -14.547101 40.449695 -13.670385 0.503972 -9.155524 24.866093 5.124005 -17.072111 0.637715 1.781442 3.464803 -0.441639 
-22.420246 28.062561 85.489265 -1.370964 1.956285 -125.603532 -7.244831 -7.471478 8.424245 -3.136841 -3.526742 3.591311 -3.136840 -3.526746 3.591310 -2.331235 -2.663676 2.674598 1.314628 -22.258453 0.705025 2.569556 -5.177102 1.636788 5.850189 4.746622 -2.348595 60.444374 41.960516 42.911780 19.229155 -5.759151 76.510857 -59.595989 32.867103 21.419849 -5.705226 9.406280 0.537650 -49.446786 35.368707 11.597760 -3.027580 -11.486601 -8.412225 20.833636 10.777204 -36.878507 3.308477 4.238528 -6.727616 4.840688 -8.460543 -4.607737 25.728223 -30.573522 13.149867 -2.418051 -0.618780 -0.845136 -15.183425 40.276379 -14.523041 0.499943 -8.820081 24.842964 4.985474 -19.175638 -0.001835 1.868140 4.263550 -0.503392 
-22.460102 27.924320 85.410080 -1.359613 1.839360 -126.345714 -7.311195 -7.583519 8.801264 -3.155997 -3.575047 3.762076 -3.155997 -3.575049 3.762075 -2.344303 -2.700910 2.802249 1.248234 -22.158869 0.776942 2.471353 -4.992495 1.750513 5.820075 4.881164 -2.049699 60.641015 40.684503 44.389222 18.892208 -5.976176 76.979545 -59.684447 33.275466 22.077465 -5.600150 9.650981 0.860746 -48.789004 36.082079 12.224608 -2.910574 -10.926511 -8.471647 20.702491 11.356186 -36.712540 3.432504 4.189076 -6.933729 4.910715 -8.569155 -4.705802 26.279981 -30.904308 13.110341 -2.343750 -0.727023 -0.872778 -15.741706 39.903229 -15.164905 0.536424 -8.436737 24.772282 4.745442 -20.989357 -0.544864 2.035056 4.756458 -0.529806 
-22.510401 27.760710 85.312164 -1.304974 1.649603 -127.109848 -7.316808 -7.696454 9.217734 -3.156841 -3.620009 3.931595 -3.156841 -3.620011 3.931596 -2.343643 -2.735529 2.929089 1.191610 -22.058323 0.832865 2.386479 -4.805881 1.838001 5.763752 5.095960 -1.779359 60.671853 39.239997 45.734144 18.423279 -6.088054 77.373182 -59.842245 33.703159 22.663334 -5.530417 9.903546 1.173142 -48.172723 36.622334 12.841001 -2.851754 -10.199086 -8.501829 20.623893 11.990648 -36.501129 3.607376 4.166228 -7.120121 5.031749 -8.769171 -4.858691 26.824523 -31.236726 13.184273 -2.324954 -0.816559 -0.924417 -16.129546 39.380183 -15.613638 0.593768 -7.967201 24.760833 4.526489 -22.746203 -1.148700 2.191972 5.176947 -0.543676 
-22.560949 27.576849 85.195770 -1.228249 1.416894 -127.817742 -7.291819 -7.807456 9.606805 -3.139489 -3.660146 4.093135 -3.139490 -3.660147 4.093137 -2.329397 -2.766363 3.050077 1.135067 -21.962207 0.879313 2.299084 -4.627219 1.908220 5.774527 5.157011 -1.375948 60.665501 37.940854 47.179026 17.721061 -6.205052 77.615544 -60.038517 34.051816 23.131989 -5.490202 10.079653 1.460707 -47.595726 37.078303 13.437610 -2.843045 -9.359872 -8.498544 20.529836 12.575908 -36.244354 3.783359 4.139237 -7.430210 5.232426 -9.047199 -4.910085 27.221372 -31.632553 13.451361 -2.288374 -0.837658 -0.936045 -16.436111 38.745696 -16.014121 0.629713 -7.468248 24.933455 4.378294 -24.872817 -1.854841 2.347976 5.885181 -0.584352 
-22.622137 27.408823 85.057869 -1.091793 1.202411 -128.430301 -7.270613 -7.858974 9.929480 -3.106428 -3.695672 4.237180 -3.106427 -3.695674 4.237180 -2.303491 -2.793527 3.158075 1.074457 -21.870366 0.928910 2.205187 -4.456443 1.982825 5.867024 5.277928 -0.830161 60.507259 36.784206 48.450353 16.926052 -6.448452 77.725592 -60.165224 34.300554 23.591036 -5.437751 10.166980 1.704534 -47.045920 37.568451 14.055379 -2.770393 -8.589218 -8.549888 20.370016 13.088998 -35.866635 3.928300 4.188860 -7.843320 5.521346 -9.405232 -4.921531 27.717179 -31.807286 13.520351 -2.287286 -0.925738 -1.008485 -16.763021 38.150793 -16.525834 0.580104 -7.064364 25.328662 4.280120 -27.311655 -2.785834 2.558082 6.780055 -0.665868 
-22.680885 27.200663 84.893799 -0.920789 0.956936 -128.904207 -7.222159 -7.912231 10.159179 -3.067373 -3.725542 4.366111 -3.067372 -3.725542 4.366115 -2.273208 -2.816314 3.254806 1.029551 -21.782221 0.977299 2.139341 -4.292899 2.059534 5.977538 5.458545 -0.381828 60.397826 35.641484 49.681997 16.210380 -6.828112 77.720975 -60.085277 34.544023 24.108712 -5.367928 10.226655 1.934447 -46.470401 38.077167 14.667683 -2.716234 -7.983439 -8.554853 20.241385 13.506606 -35.477857 4.130401 4.223008 -8.403805 5.823835 -9.817870 -4.944325 28.004257 -31.888149 13.797394 -2.210354 -1.041004 -1.036342 -17.107834 37.515647 -17.093184 0.449021 -6.731461 25.777170 4.057604 -29.585244 -3.598553 2.905342 7.449820 -0.747126 
-22.713873 26.966194 84.704697 -0.763936 0.672090 -129.325684 -7.177854 -7.993059 10.384276 -3.032303 -3.753556 4.487533 -3.032302 -3.753555 4.487535 -2.245959 -2.837679 3.345900 1.015486 -21.692172 1.016720 2.126884 -4.126348 2.128758 6.051611 5.642520 -0.105010 60.404718 34.396880 50.928964 15.667598 -7.299511 77.681046 -59.923722 34.824232 24.742051 -5.291814 10.327344 2.097309 -45.778656 38.586136 15.352110 -2.637734 -7.526692 -8.492239 20.085563 13.837973 -35.230519 4.391643 4.187031 -9.042137 6.058631 -10.297308 -4.964323 28.218730 -31.776311 14.188909 -2.104087 -1.196254 -1.113264 -17.446668 36.740571 -17.528986 0.297871 -6.409636 26.140959 3.726337 -31.416343 -4.349601 3.296356 7.710084 -0.784375 
